<svg xmlns="http://www.w3.org/2000/svg" xmlns:xlink="http://www.w3.org/1999/xlink" width="500" zoomAndPan="magnify" viewBox="0 0 375 374.999991" height="500" preserveAspectRatio="xMidYMid meet" version="1.0"><defs><g><g id="id1"/></g><clipPath id="id2"><path d="M 27.839844 146.210938 L 163.589844 146.210938 L 163.589844 228.710938 L 27.839844 228.710938 Z M 27.839844 146.210938 " clip-rule="nonzero"/></clipPath></defs><g clip-path="url(#id2)"><path fill="rgb(100%, 0%, 9.799194%)" d="M 159.597656 177.519531 C 159.597656 177.519531 153.8125 177.519531 150.609375 177.519531 C 147.0625 166.257812 138.042969 157.898438 126.585938 155.230469 C 126.585938 152.777344 126.585938 149.90625 126.585938 149.90625 C 126.585938 147.699219 124.800781 145.90625 122.597656 145.90625 L 111.644531 145.90625 C 109.4375 145.90625 107.652344 147.699219 107.652344 149.90625 L 107.652344 164.484375 L 95.570312 164.484375 C 93.367188 164.484375 91.582031 166.273438 91.582031 168.484375 C 91.582031 170.691406 93.367188 172.480469 95.570312 172.480469 L 107.652344 172.480469 L 107.652344 201.710938 L 95.570312 201.710938 C 93.367188 201.710938 91.582031 203.503906 91.582031 205.710938 C 91.582031 207.925781 93.367188 209.710938 95.570312 209.710938 L 107.652344 209.710938 L 107.652344 225.113281 C 107.652344 227.320312 109.4375 229.109375 111.644531 229.109375 L 122.597656 229.109375 C 124.800781 229.109375 126.585938 227.320312 126.585938 225.113281 C 126.585938 225.113281 126.585938 222.246094 126.585938 219.800781 C 138.042969 217.117188 147.0625 208.765625 150.609375 197.507812 C 153.8125 197.507812 159.597656 197.507812 159.597656 197.507812 C 161.796875 197.507812 163.589844 195.726562 163.589844 193.507812 L 163.589844 181.515625 C 163.589844 179.304688 161.796875 177.519531 159.597656 177.519531 Z M 79.792969 145.898438 L 68.847656 145.898438 C 66.640625 145.898438 64.855469 147.691406 64.855469 149.902344 C 64.855469 149.902344 64.855469 152.777344 64.855469 155.222656 C 53.402344 157.898438 44.371094 166.246094 40.816406 177.511719 C 37.621094 177.511719 31.835938 177.511719 31.835938 177.511719 C 29.628906 177.511719 27.839844 179.304688 27.839844 181.515625 L 27.839844 193.507812 C 27.839844 195.726562 29.628906 197.507812 31.835938 197.507812 C 31.835938 197.507812 37.621094 197.507812 40.804688 197.507812 C 44.371094 208.765625 53.402344 217.117188 64.855469 219.789062 C 64.855469 222.238281 64.855469 225.113281 64.855469 225.113281 C 64.855469 227.320312 66.640625 229.113281 68.847656 229.113281 L 79.792969 229.113281 C 81.996094 229.113281 83.789062 227.320312 83.789062 225.113281 L 83.789062 209.613281 L 70.953125 209.613281 C 68.75 209.613281 66.964844 207.816406 66.964844 205.613281 C 66.964844 203.402344 68.75 201.609375 70.953125 201.609375 L 83.789062 201.609375 L 83.789062 172.347656 L 70.953125 172.347656 C 68.75 172.347656 66.964844 170.5625 66.964844 168.351562 C 66.964844 166.148438 68.75 164.351562 70.953125 164.351562 L 83.789062 164.351562 L 83.789062 149.902344 C 83.789062 147.691406 81.996094 145.898438 79.792969 145.898438 Z M 79.792969 145.898438 " fill-opacity="1" fill-rule="nonzero"/></g><g fill="rgb(100%, 100%, 100%)" fill-opacity="1"><g transform="translate(189.115379, 204.999243)"><g><path d="M 19.21875 -6.015625 C 20.894531 -6.015625 22.304688 -6.351562 23.453125 -7.03125 C 24.609375 -7.71875 25.535156 -8.609375 26.234375 -9.703125 C 26.929688 -10.804688 27.425781 -12.066406 27.71875 -13.484375 C 28.007812 -14.910156 28.15625 -16.378906 28.15625 -17.890625 L 28.15625 -36.484375 L 35.203125 -36.484375 L 35.203125 -17.890625 C 35.203125 -15.378906 34.898438 -13.023438 34.296875 -10.828125 C 33.703125 -8.640625 32.757812 -6.722656 31.46875 -5.078125 C 30.1875 -3.441406 28.535156 -2.144531 26.515625 -1.1875 C 24.492188 -0.226562 22.078125 0.25 19.265625 0.25 C 16.359375 0.25 13.882812 -0.253906 11.84375 -1.265625 C 9.800781 -2.273438 8.144531 -3.609375 6.875 -5.265625 C 5.613281 -6.929688 4.695312 -8.859375 4.125 -11.046875 C 3.5625 -13.242188 3.28125 -15.523438 3.28125 -17.890625 L 3.28125 -36.484375 L 10.375 -36.484375 L 10.375 -17.890625 C 10.375 -16.347656 10.519531 -14.863281 10.8125 -13.4375 C 11.101562 -12.019531 11.597656 -10.757812 12.296875 -9.65625 C 13.003906 -8.5625 13.921875 -7.679688 15.046875 -7.015625 C 16.179688 -6.347656 17.570312 -6.015625 19.21875 -6.015625 Z M 19.21875 -6.015625 "/></g></g></g><g fill="rgb(100%, 100%, 100%)" fill-opacity="1"><g transform="translate(227.65537, 204.999243)"><g><path d="M 3.796875 0 L 3.796875 -36.484375 L 19.9375 -36.484375 C 21.613281 -36.484375 23.160156 -36.128906 24.578125 -35.421875 C 26.003906 -34.722656 27.234375 -33.800781 28.265625 -32.65625 C 29.296875 -31.507812 30.097656 -30.207031 30.671875 -28.75 C 31.253906 -27.289062 31.546875 -25.828125 31.546875 -24.359375 C 31.546875 -21.992188 30.957031 -19.84375 29.78125 -17.90625 C 28.601562 -15.96875 27 -14.570312 24.96875 -13.71875 L 33.296875 0 L 25.328125 0 L 17.890625 -12.234375 L 10.890625 -12.234375 L 10.890625 0 Z M 10.890625 -18.453125 L 19.78125 -18.453125 C 20.4375 -18.453125 21.046875 -18.601562 21.609375 -18.90625 C 22.171875 -19.21875 22.65625 -19.640625 23.0625 -20.171875 C 23.476562 -20.703125 23.804688 -21.328125 24.046875 -22.046875 C 24.285156 -22.765625 24.40625 -23.535156 24.40625 -24.359375 C 24.40625 -25.210938 24.269531 -26 24 -26.71875 C 23.726562 -27.4375 23.359375 -28.0625 22.890625 -28.59375 C 22.429688 -29.125 21.898438 -29.535156 21.296875 -29.828125 C 20.703125 -30.117188 20.097656 -30.265625 19.484375 -30.265625 L 10.890625 -30.265625 Z M 10.890625 -18.453125 "/></g></g></g><g fill="rgb(100%, 100%, 100%)" fill-opacity="1"><g transform="translate(261.827495, 204.999243)"><g><path d="M 15.625 0.515625 C 13.46875 0.515625 11.515625 0.144531 9.765625 -0.59375 C 8.015625 -1.332031 6.519531 -2.332031 5.28125 -3.59375 C 4.050781 -4.863281 3.101562 -6.335938 2.4375 -8.015625 C 1.769531 -9.691406 1.4375 -11.457031 1.4375 -13.3125 C 1.4375 -15.226562 1.757812 -17.035156 2.40625 -18.734375 C 3.0625 -20.429688 4.003906 -21.921875 5.234375 -23.203125 C 6.472656 -24.484375 7.972656 -25.5 9.734375 -26.25 C 11.503906 -27.007812 13.484375 -27.390625 15.671875 -27.390625 C 17.867188 -27.390625 19.832031 -27.007812 21.5625 -26.25 C 23.289062 -25.5 24.757812 -24.488281 25.96875 -23.21875 C 27.1875 -21.957031 28.113281 -20.488281 28.75 -18.8125 C 29.382812 -17.132812 29.703125 -15.382812 29.703125 -13.5625 C 29.703125 -13.125 29.691406 -12.695312 29.671875 -12.28125 C 29.660156 -11.875 29.617188 -11.53125 29.546875 -11.25 L 8.734375 -11.25 C 8.835938 -10.1875 9.09375 -9.242188 9.5 -8.421875 C 9.914062 -7.597656 10.445312 -6.894531 11.09375 -6.3125 C 11.75 -5.738281 12.488281 -5.296875 13.3125 -4.984375 C 14.132812 -4.671875 14.988281 -4.515625 15.875 -4.515625 C 17.25 -4.515625 18.539062 -4.847656 19.75 -5.515625 C 20.96875 -6.191406 21.800781 -7.078125 22.25 -8.171875 L 28.15625 -6.53125 C 27.164062 -4.46875 25.582031 -2.773438 23.40625 -1.453125 C 21.226562 -0.140625 18.632812 0.515625 15.625 0.515625 Z M 22.609375 -15.71875 C 22.441406 -17.738281 21.695312 -19.359375 20.375 -20.578125 C 19.050781 -21.796875 17.453125 -22.40625 15.578125 -22.40625 C 14.648438 -22.40625 13.78125 -22.242188 12.96875 -21.921875 C 12.164062 -21.597656 11.457031 -21.144531 10.84375 -20.5625 C 10.226562 -19.976562 9.722656 -19.273438 9.328125 -18.453125 C 8.929688 -17.628906 8.703125 -16.71875 8.640625 -15.71875 Z M 22.609375 -15.71875 "/></g></g></g><g fill="rgb(100%, 100%, 100%)" fill-opacity="1"><g transform="translate(292.608094, 204.999243)"><g><path d="M 28.15625 0 L 21.28125 0 L 21.28125 -15.109375 C 21.28125 -17.265625 20.898438 -18.835938 20.140625 -19.828125 C 19.390625 -20.828125 18.347656 -21.328125 17.015625 -21.328125 C 16.328125 -21.328125 15.625 -21.1875 14.90625 -20.90625 C 14.1875 -20.632812 13.507812 -20.25 12.875 -19.75 C 12.238281 -19.257812 11.660156 -18.671875 11.140625 -17.984375 C 10.628906 -17.296875 10.253906 -16.539062 10.015625 -15.71875 L 10.015625 0 L 3.140625 0 L 3.140625 -26.921875 L 9.359375 -26.921875 L 9.359375 -21.9375 C 10.347656 -23.65625 11.785156 -24.992188 13.671875 -25.953125 C 15.554688 -26.910156 17.679688 -27.390625 20.046875 -27.390625 C 21.722656 -27.390625 23.09375 -27.082031 24.15625 -26.46875 C 25.21875 -25.851562 26.039062 -25.046875 26.625 -24.046875 C 27.207031 -23.054688 27.609375 -21.925781 27.828125 -20.65625 C 28.046875 -19.382812 28.15625 -18.101562 28.15625 -16.8125 Z M 28.15625 0 "/></g></g></g><g fill="rgb(100%, 100%, 100%)" fill-opacity="1"><g transform="translate(323.645636, 204.999243)"><g><path d="M 19.265625 -1.390625 C 18.347656 -0.972656 17.21875 -0.554688 15.875 -0.140625 C 14.539062 0.265625 13.140625 0.46875 11.671875 0.46875 C 10.710938 0.46875 9.8125 0.347656 8.96875 0.109375 C 8.125 -0.128906 7.382812 -0.515625 6.75 -1.046875 C 6.125 -1.578125 5.617188 -2.265625 5.234375 -3.109375 C 4.859375 -3.953125 4.671875 -4.972656 4.671875 -6.171875 L 4.671875 -21.640625 L 1.125 -21.640625 L 1.125 -26.921875 L 4.671875 -26.921875 L 4.671875 -35.671875 L 11.5625 -35.671875 L 11.5625 -26.921875 L 17.21875 -26.921875 L 17.21875 -21.640625 L 11.5625 -21.640625 L 11.5625 -8.484375 C 11.5625 -7.523438 11.804688 -6.847656 12.296875 -6.453125 C 12.796875 -6.054688 13.40625 -5.859375 14.125 -5.859375 C 14.851562 -5.859375 15.554688 -5.976562 16.234375 -6.21875 C 16.921875 -6.457031 17.472656 -6.660156 17.890625 -6.828125 Z M 19.265625 -1.390625 "/></g></g></g></svg>